<svg width="32" height="32" viewBox="0 0 32 32" fill="none" xmlns="http://www.w3.org/2000/svg">
<path d="M15.9423 11.0586L19.6141 12.6211C20.0438 12.8164 20.3759 13.2266 20.3759 13.7344C20.3563 15.6875 19.5556 19.2227 16.1962 20.8438C15.8641 21 15.4931 21 15.161 20.8438C11.8016 19.2227 11.0008 15.6875 11.0008 13.7344C10.9813 13.2266 11.3133 12.8164 11.743 12.6211L15.4149 11.0586C15.4931 11.0195 15.5907 11 15.6884 11C15.7665 11 15.8641 11.0195 15.9423 11.0586ZM16.7821 15.0625C16.7821 14.4766 16.2743 13.9688 15.6884 13.9688C15.0829 13.9688 14.5946 14.4766 14.5946 15.0625C14.5946 15.5117 14.8485 15.8828 15.2196 16.0586V17.4062C15.2196 17.6797 15.4149 17.875 15.6884 17.875C15.9423 17.875 16.1571 17.6797 16.1571 17.4062V16.0586C16.5087 15.8828 16.7821 15.5117 16.7821 15.0625Z" fill="#D5F4F6" style="fill:#D5F4F6;fill:color(display-p3 0.8350 0.9550 0.9650);fill-opacity:1;"/>
</svg>
