<svg width="24" height="24" viewBox="0 0 24 24" fill="none" xmlns="http://www.w3.org/2000/svg">
<path d="M4.11938 3.58325C3.01481 3.58325 2.11938 4.47868 2.11938 5.58325V18.9169C2.11938 19.7453 2.79095 20.4169 3.61938 20.4169H20.4537C21.253 20.4169 21.9119 19.7901 21.9518 18.9918L22.1335 15.3595C22.169 14.6497 21.8588 13.9667 21.3011 13.5264L9.25141 4.01349C8.89843 3.73482 8.46184 3.58325 8.01212 3.58325H4.11938Z" fill="#1B777E" style="fill:#1B777E;fill:color(display-p3 0.1050 0.4650 0.4950);fill-opacity:1;"/>
<path d="M1.49254 7.8788C1.43542 6.73643 2.34625 5.77893 3.49004 5.77893H20.51C21.6538 5.77893 22.5646 6.73644 22.5075 7.8788L21.9518 18.9917C21.9119 19.79 21.253 20.4168 20.4537 20.4168H3.54632C2.74701 20.4168 2.08811 19.79 2.04819 18.9917L1.49254 7.8788Z" fill="#249DA8" style="fill:#249DA8;fill:color(display-p3 0.1400 0.6167 0.6600);fill-opacity:1;"/>
<path d="M12.2539 8.30859L15.9257 9.87109C16.3554 10.0664 16.6875 10.4766 16.6875 10.9844C16.6679 12.9375 15.8672 16.4727 12.5078 18.0938C12.1757 18.25 11.8047 18.25 11.4726 18.0938C8.11325 16.4727 7.31246 12.9375 7.31246 10.9844C7.29293 10.4766 7.62496 10.0664 8.05465 9.87109L11.7265 8.30859C11.8047 8.26953 11.9023 8.25 12 8.25C12.0781 8.25 12.1757 8.26953 12.2539 8.30859ZM13.0937 12.3125C13.0937 11.7266 12.5859 11.2188 12 11.2188C11.3945 11.2188 10.9062 11.7266 10.9062 12.3125C10.9062 12.7617 11.1601 13.1328 11.5312 13.3086V14.6562C11.5312 14.9297 11.7265 15.125 12 15.125C12.2539 15.125 12.4687 14.9297 12.4687 14.6562V13.3086C12.8203 13.1328 13.0937 12.7617 13.0937 12.3125Z" fill="#D5F4F6" style="fill:#D5F4F6;fill:color(display-p3 0.8350 0.9550 0.9650);fill-opacity:1;"/>
</svg>
