<svg width="32" height="32" viewBox="0 0 32 32" fill="none" xmlns="http://www.w3.org/2000/svg">
<path d="M5.84631 5C4.18946 5 2.84631 6.34315 2.84631 8V25C2.84631 26.6569 4.18946 28 5.84631 28H26.9926C28.5912 28 29.909 26.7464 29.9888 25.1498L30.1918 21.0899C30.2403 20.1202 29.8165 19.187 29.0545 18.5854L12.6638 5.64535C12.1343 5.22735 11.4794 5 10.8048 5H5.84631Z" fill="#395F93"/>
<path d="M2.00382 11.1498C1.91814 9.43626 3.28439 8 5.00008 8H27.6926C29.4083 8 30.7745 9.43626 30.6888 11.1498L29.9888 25.1498C29.909 26.7464 28.5912 28 26.9926 28H5.70008C4.10145 28 2.78365 26.7464 2.70382 25.1498L2.00382 11.1498Z" fill="#5A84BF"/>
<path d="M12.2521 14.2198C13.1581 13.5095 14.4199 13 15.8463 13C18.5366 13 20.7696 14.8177 21.012 17.1627C22.6044 17.3674 23.8463 18.5787 23.8463 20.0661C23.8463 21.6995 22.3486 23 20.5338 23H11.6276C9.55385 23 7.84631 21.5145 7.84631 19.6529C7.84631 18.0501 9.11218 16.7228 10.7885 16.3864C10.9311 15.6015 11.4862 14.8203 12.2521 14.2198Z" fill="#DAE4F1"/>
</svg>
