<?xml version="1.0" encoding="UTF-8" standalone="no"?>
<!DOCTYPE svg PUBLIC "-//W3C//DTD SVG 1.1//EN" "http://www.w3.org/Graphics/SVG/1.1/DTD/svg11.dtd">
<svg width="16" height="16" viewBox="0 0 16 16" version="1.1" xmlns="http://www.w3.org/2000/svg" xmlns:xlink="http://www.w3.org/1999/xlink" xml:space="preserve" xmlns:serif="http://www.serif.com/" style="fill-rule:evenodd;clip-rule:evenodd;stroke-linejoin:round;stroke-miterlimit:2;">
    <g transform="matrix(0.888889,0,0,0.888889,-2.66667,-2.65556)">
        <path d="M6,20L7,16L3,16L3.5,14L7.5,14L8.5,10L4.5,10L5,8L9,8L10,4L12,4L11,8L15,8L16,4L18,4L17,8L21,8L20.5,10L16.5,10L15.5,14L19.5,14L19,16L15,16L14,20L12,20L13,16L9,16L8,20L6,20ZM9.5,14L13.5,14L14.5,10L10.5,10L9.5,14Z" style="fill-rule:nonzero;"/>
    </g>
</svg>
