<svg xmlns="http://www.w3.org/2000/svg" xml:space="preserve" style="fill-rule:evenodd;clip-rule:evenodd;stroke-linejoin:round;stroke-miterlimit:2" viewBox="0 0 200 200" height="200" width="200"><path d="m612-292 56-56-148-148v-184h-80v216l172 172ZM480-80c-55.333 0-107.333-10.5-156-31.5S233-161 197-197s-64.5-78.333-85.5-127S80-424.667 80-480s10.5-107.333 31.5-156S161-727 197-763s78.333-64.5 127-85.5S424.667-880 480-880s107.333 10.5 156 31.5S727-799 763-763s64.5 78.333 85.5 127S880-535.333 880-480s-10.5 107.333-31.5 156S799-233 763-197s-78.333 64.5-127 85.5S535.333-80 480-80Zm0-80c88.667 0 164.167-31.167 226.5-93.5S800-391.333 800-480s-31.167-164.167-93.5-226.5S568.667-800 480-800s-164.167 31.167-226.5 93.5S160-568.667 160-480s31.167 164.167 93.5 226.5S391.333-160 480-160Z" style="fill-rule:nonzero" transform="matrix(.15 0 0 .15 28 172)"/></svg>