<?xml version="1.0" encoding="UTF-8" standalone="no"?>
<!DOCTYPE svg PUBLIC "-//W3C//DTD SVG 1.1//EN" "http://www.w3.org/Graphics/SVG/1.1/DTD/svg11.dtd">
<svg height="1024" width="1024" viewBox="0 0 1024 1024" version="1.1" xmlns="http://www.w3.org/2000/svg" xmlns:xlink="http://www.w3.org/1999/xlink" xml:space="preserve" xmlns:serif="http://www.serif.com/" style="fill-rule:evenodd;clip-rule:evenodd;stroke-linejoin:round;stroke-miterlimit:2;">
    <g transform="matrix(2.00002,0,0,2.00002,-0.00467004,-12.5202)">
        <path d="M477.653,133.759C454.761,94.536 423.709,63.483 384.49,40.593C345.265,17.703 302.443,6.26 255.996,6.26C209.553,6.26 166.717,17.706 127.503,40.593C88.28,63.482 57.23,94.536 34.338,133.759C11.45,172.98 0.005,215.811 0.005,262.252C0.005,318.034 16.279,368.195 48.837,412.752C81.391,457.308 123.446,488.139 174.995,505.248C180.996,506.362 185.438,505.579 188.327,502.918C191.216,500.254 192.659,496.917 192.659,492.922C192.659,492.256 192.602,486.258 192.491,474.923C192.377,463.588 192.323,453.699 192.323,445.262L184.656,446.588C179.768,447.484 173.601,447.863 166.156,447.756C158.715,447.652 150.99,446.872 142.991,445.422C134.989,443.985 127.546,440.652 120.657,435.429C113.771,430.207 108.883,423.372 105.994,414.933L102.66,407.263C100.439,402.156 96.941,396.483 92.162,390.265C87.384,384.041 82.552,379.822 77.663,377.6L75.33,375.93C73.774,374.819 72.331,373.48 70.997,371.926C69.664,370.373 68.666,368.817 67.999,367.26C67.331,365.701 67.885,364.423 69.665,363.42C71.445,362.417 74.663,361.93 79.332,361.93L85.996,362.926C90.44,363.817 95.938,366.478 102.496,370.925C109.05,375.368 114.438,381.145 118.661,388.253C123.774,397.366 129.935,404.31 137.161,409.089C144.38,413.867 151.66,416.252 158.991,416.252C166.323,416.252 172.656,415.697 177.991,414.591C183.321,413.48 188.321,411.809 192.99,409.588C194.99,394.694 200.435,383.251 209.32,375.253C196.656,373.922 185.269,371.917 175.155,369.252C165.047,366.583 154.602,362.252 143.826,356.246C133.044,350.249 124.1,342.801 116.991,333.917C109.881,325.027 104.046,313.357 99.494,298.917C94.94,284.47 92.662,267.806 92.662,248.918C92.662,222.025 101.441,199.14 118.997,180.25C110.773,160.032 111.55,137.366 121.328,112.256C127.773,110.254 137.33,111.756 149.995,116.754C162.662,121.755 171.936,126.038 177.828,129.59C183.719,133.14 188.439,136.148 191.995,138.588C212.665,132.813 233.996,129.925 255.994,129.925C277.992,129.925 299.328,132.813 319.999,138.588L332.665,130.592C341.327,125.257 351.555,120.368 363.326,115.923C375.103,111.481 384.109,110.257 390.334,112.259C400.33,137.371 401.221,160.035 392.995,180.254C410.549,199.144 419.332,222.034 419.332,248.922C419.332,267.809 417.046,284.526 412.499,299.084C407.946,313.643 402.06,325.302 394.841,334.084C387.613,342.864 378.611,350.253 367.836,356.249C357.057,362.25 346.608,366.582 336.5,369.251C326.388,371.919 315.001,373.925 302.336,375.258C313.887,385.254 319.664,401.033 319.664,422.587L319.664,492.913C319.664,496.908 321.053,500.243 323.834,502.909C326.612,505.569 330.998,506.353 336.999,505.238C388.558,488.131 430.614,457.299 463.169,412.743C495.718,368.191 511.999,318.03 511.999,262.243C511.987,215.811 500.536,172.984 477.658,133.761L477.653,133.759Z" style="fill-rule:nonzero;"/>
    </g>
</svg>
