<svg xmlns="http://www.w3.org/2000/svg" xml:space="preserve" style="fill-rule:evenodd;clip-rule:evenodd;stroke-linejoin:round;stroke-miterlimit:2" viewBox="0 0 16 16" height="16" width="16"><path d="M880-80 720-240H160c-22 0-40.833-7.833-56.5-23.5C87.833-279.167 80-298 80-320v-480c0-22 7.833-40.833 23.5-56.5C119.167-872.167 138-880 160-880h640c22 0 40.833 7.833 56.5 23.5C872.167-840.833 880-822 880-800v720ZM160-320h594l46 45v-525H160v480Zm0 0v-480 480Z" style="fill-rule:nonzero" transform="matrix(.02 0 0 .02 -1.6 17.6)"/></svg>