<?xml version="1.0" encoding="UTF-8" standalone="no"?>
<!DOCTYPE svg PUBLIC "-//W3C//DTD SVG 1.1//EN" "http://www.w3.org/Graphics/SVG/1.1/DTD/svg11.dtd">
<svg height="32" width="32" viewBox="0 0 32 32" version="1.1" xmlns="http://www.w3.org/2000/svg" xmlns:xlink="http://www.w3.org/1999/xlink" xml:space="preserve" xmlns:serif="http://www.serif.com/" style="fill-rule:evenodd;clip-rule:evenodd;stroke-linejoin:round;stroke-miterlimit:2;">
    <g transform="matrix(1.27273,0,0,1.27273,0.727273,0.709091)">
        <path d="M9,20C8.683,20 8.4,19.908 8.15,19.725C7.9,19.542 7.717,19.308 7.6,19.025L5.3,13L1,13L1,11L6.7,11L9,17.1L13.6,4.975C13.717,4.692 13.9,4.458 14.15,4.275C14.4,4.092 14.683,4 15,4C15.317,4 15.6,4.092 15.85,4.275C16.1,4.458 16.283,4.692 16.4,4.975L18.7,11L23,11L23,13L17.3,13L15,6.9L10.4,19.025C10.283,19.308 10.1,19.542 9.85,19.725C9.6,19.908 9.317,20 9,20Z" style="fill-rule:nonzero;"/>
    </g>
</svg>
